<svg width="27" height="28" viewBox="0 0 27 28" fill="none" xmlns="http://www.w3.org/2000/svg">
<rect x="2.49994" y="0.645508" width="24" height="2" stroke="#417A82"/>
<path d="M4.49994 14.6455V2.64551H24.4999V22.6455H10.5624H4.49994V14.6455Z" stroke="#417A82"/>
<mask id="path-3-inside-1_0_692" fill="white">
<path d="M4 14.1455C4.52529 14.1455 5.04543 14.0291 5.53073 13.803C6.01604 13.5768 6.45699 13.2454 6.82843 12.8275C7.19986 12.4096 7.4945 11.9135 7.69552 11.3676C7.89654 10.8216 8 10.2365 8 9.64551C8 9.05456 7.89654 8.4694 7.69552 7.92343C7.4945 7.37747 7.19986 6.88139 6.82843 6.46353C6.45699 6.04566 6.01604 5.7142 5.53073 5.48805C5.04543 5.2619 4.52529 5.14551 4 5.14551L4 9.64551L4 14.1455Z"/>
</mask>
<path d="M4 14.1455C4.52529 14.1455 5.04543 14.0291 5.53073 13.803C6.01604 13.5768 6.45699 13.2454 6.82843 12.8275C7.19986 12.4096 7.4945 11.9135 7.69552 11.3676C7.89654 10.8216 8 10.2365 8 9.64551C8 9.05456 7.89654 8.4694 7.69552 7.92343C7.4945 7.37747 7.19986 6.88139 6.82843 6.46353C6.45699 6.04566 6.01604 5.7142 5.53073 5.48805C5.04543 5.2619 4.52529 5.14551 4 5.14551L4 9.64551L4 14.1455Z" stroke="#417A82" stroke-width="2" mask="url(#path-3-inside-1_0_692)"/>
<mask id="path-4-inside-2_0_692" fill="white">
<path d="M23 23.1455C23 22.6202 22.8836 22.1001 22.6575 21.6148C22.4313 21.1295 22.0998 20.6885 21.682 20.3171C21.2641 19.9456 20.768 19.651 20.2221 19.45C19.6761 19.249 19.0909 19.1455 18.5 19.1455C17.9091 19.1455 17.3239 19.249 16.7779 19.45C16.232 19.651 15.7359 19.9456 15.318 20.3171C14.9002 20.6885 14.5687 21.1295 14.3425 21.6148C14.1164 22.1001 14 22.6202 14 23.1455L18.5 23.1455H23Z"/>
</mask>
<path d="M23 23.1455C23 22.6202 22.8836 22.1001 22.6575 21.6148C22.4313 21.1295 22.0998 20.6885 21.682 20.3171C21.2641 19.9456 20.768 19.651 20.2221 19.45C19.6761 19.249 19.0909 19.1455 18.5 19.1455C17.9091 19.1455 17.3239 19.249 16.7779 19.45C16.232 19.651 15.7359 19.9456 15.318 20.3171C14.9002 20.6885 14.5687 21.1295 14.3425 21.6148C14.1164 22.1001 14 22.6202 14 23.1455L18.5 23.1455H23Z" stroke="#417A82" stroke-width="2" mask="url(#path-4-inside-2_0_692)"/>
<circle cx="20.5" cy="6.64551" r="2" stroke="#417A82"/>
<circle cx="8.5" cy="18.6455" r="2" stroke="#417A82"/>
<circle cx="16.5" cy="13.6455" r="3" stroke="#417A82"/>
<line x1="12.5" y1="3.14551" x2="12.5" y2="22.1455" stroke="#417A82"/>
<line x1="16.5" y1="3.14551" x2="16.5" y2="22.1455" stroke="#417A82"/>
<line x1="20.5" y1="3.14551" x2="20.5" y2="22.1455" stroke="#417A82"/>
<line x1="8.5" y1="3.14551" x2="8.5" y2="22.1455" stroke="#417A82"/>
</svg>
