<svg width="74" height="26" viewBox="0 0 74 26" fill="none" xmlns="http://www.w3.org/2000/svg">
<rect x="0.500366" y="0.5" width="22" height="4" rx="2" stroke="#417A82"/>
<circle cx="2.50037" cy="2.5" r="2" stroke="#417A82"/>
<path fill-rule="evenodd" clip-rule="evenodd" d="M0.20907 2.5H0V23.5V24H0.5H20.5H21V23.5V4.5H20V23H1V3.15423C0.666262 3.03512 0.386854 2.80124 0.20907 2.5Z" fill="#417A82"/>
<line x1="10.5" y1="24" x2="10.5" y2="26" stroke="#417A82"/>
<line x1="1" y1="20.5" x2="20.598" y2="20.5" stroke="#417A82"/>
<path d="M45.487 18H40.105V8.9H41.184V17.038H45.487V18ZM45.5911 14.75C45.5911 13.6493 45.8338 12.8087 46.3191 12.228C46.8131 11.6387 47.5194 11.344 48.4381 11.344C48.9234 11.344 49.3438 11.4263 49.6991 11.591C50.0631 11.747 50.3621 11.9767 50.5961 12.28C50.8301 12.5747 51.0034 12.9343 51.1161 13.359C51.2288 13.775 51.2851 14.2387 51.2851 14.75C51.2851 15.8507 51.0381 16.6957 50.5441 17.285C50.0588 17.8657 49.3568 18.156 48.4381 18.156C47.9528 18.156 47.5281 18.078 47.1641 17.922C46.8088 17.7573 46.5141 17.5277 46.2801 17.233C46.0461 16.9297 45.8728 16.57 45.7601 16.154C45.6474 15.7293 45.5911 15.2613 45.5911 14.75ZM46.6701 14.75C46.6701 15.0793 46.7004 15.3957 46.7611 15.699C46.8304 16.0023 46.9344 16.2667 47.0731 16.492C47.2118 16.7173 47.3938 16.8993 47.6191 17.038C47.8444 17.1767 48.1174 17.246 48.4381 17.246C49.6168 17.2547 50.2061 16.4227 50.2061 14.75C50.2061 14.412 50.1714 14.0913 50.1021 13.788C50.0414 13.4847 49.9418 13.2203 49.8031 12.995C49.6644 12.7697 49.4824 12.592 49.2571 12.462C49.0318 12.3233 48.7588 12.254 48.4381 12.254C47.2594 12.2453 46.6701 13.0773 46.6701 14.75ZM55.9928 12.501C55.7328 12.4143 55.4858 12.371 55.2518 12.371C54.8792 12.371 54.5845 12.475 54.3678 12.683C54.1512 12.8823 54.0168 13.138 53.9648 13.45V18H52.9248V11.5H53.6528L53.8478 12.293H53.8998C54.0645 11.9983 54.2595 11.773 54.4848 11.617C54.7188 11.4523 55.0135 11.37 55.3688 11.37C55.6202 11.37 55.9018 11.4133 56.2138 11.5L55.9928 12.501ZM62.0878 17.48C61.8278 17.688 61.4985 17.8527 61.0998 17.974C60.7098 18.0953 60.2938 18.156 59.8518 18.156C59.3578 18.156 58.9288 18.078 58.5648 17.922C58.2008 17.7573 57.9018 17.5277 57.6678 17.233C57.4338 16.9297 57.2605 16.57 57.1478 16.154C57.0351 15.738 56.9788 15.27 56.9788 14.75C56.9788 13.6407 57.2258 12.7957 57.7198 12.215C58.2138 11.6343 58.9201 11.344 59.8388 11.344C60.1335 11.344 60.4281 11.3787 60.7228 11.448C61.0175 11.5087 61.2818 11.63 61.5158 11.812C61.7498 11.994 61.9405 12.254 62.0878 12.592C62.2351 12.9213 62.3088 13.359 62.3088 13.905C62.3088 14.191 62.2828 14.5073 62.2308 14.854H58.0578C58.0578 15.2353 58.0968 15.5733 58.1748 15.868C58.2528 16.1627 58.3741 16.414 58.5388 16.622C58.7035 16.8213 58.9158 16.9773 59.1758 17.09C59.4445 17.194 59.7695 17.246 60.1508 17.246C60.4455 17.246 60.7401 17.194 61.0348 17.09C61.3295 16.986 61.5505 16.8647 61.6978 16.726L62.0878 17.48ZM59.8518 12.254C59.3405 12.254 58.9288 12.3883 58.6168 12.657C58.3135 12.9257 58.1315 13.385 58.0708 14.035H61.2948C61.2948 13.3763 61.1691 12.917 60.9178 12.657C60.6665 12.3883 60.3111 12.254 59.8518 12.254ZM67.7534 18V14.321C67.7534 13.9743 67.736 13.6753 67.7014 13.424C67.6754 13.164 67.619 12.9473 67.5324 12.774C67.4457 12.6007 67.32 12.4707 67.1554 12.384C66.9994 12.2973 66.7914 12.254 66.5314 12.254C66.1327 12.254 65.799 12.3753 65.5304 12.618C65.2704 12.8607 65.0884 13.164 64.9844 13.528V18H63.9444V11.5H64.6724L64.8674 12.293H64.9194C65.1534 12.0157 65.422 11.7903 65.7254 11.617C66.0374 11.435 66.4404 11.344 66.9344 11.344C67.3504 11.344 67.6884 11.4263 67.9484 11.591C68.217 11.747 68.425 12.0243 68.5724 12.423C68.7717 12.085 69.0447 11.8207 69.3914 11.63C69.7467 11.4393 70.1454 11.344 70.5874 11.344C70.9514 11.344 71.259 11.3873 71.5104 11.474C71.7617 11.552 71.9697 11.695 72.1344 11.903C72.299 12.111 72.416 12.3927 72.4854 12.748C72.5634 13.1033 72.6024 13.554 72.6024 14.1V18H71.5624V14.087C71.5624 13.775 71.545 13.5063 71.5104 13.281C71.4844 13.047 71.4237 12.8563 71.3284 12.709C71.2417 12.553 71.116 12.4403 70.9514 12.371C70.7954 12.293 70.5874 12.254 70.3274 12.254C69.894 12.254 69.556 12.3753 69.3134 12.618C69.0707 12.8607 68.8974 13.2073 68.7934 13.658V18H67.7534Z" fill="#417A82"/>
</svg>
